<svg height="100%" viewBox="0 0 100 100" fill="none" xmlns="http://www.w3.org/2000/svg">
    <path fill-rule="evenodd" clip-rule="evenodd" d="M1.98869 1.98869C-0.662898 4.64028 -0.662897 8.93937 1.98869 11.591L40.3977 50L1.98869 88.409C-0.662897 91.0606 -0.662898 95.3597 1.98869 98.0113C4.64029 100.663 8.93937 100.663 11.591 98.0113L50 59.6023L88.4091 98.0113C91.0606 100.663 95.3597 100.663 98.0113 98.0113C100.663 95.3597 100.663 91.0606 98.0113 88.409L59.6023 50L98.0113 11.591C100.663 8.93936 100.663 4.64028 98.0113 1.98869C95.3597 -0.662898 91.0606 -0.662897 88.4091 1.98869L50 40.3977L11.591 1.98869C8.93936 -0.662898 4.64028 -0.662898 1.98869 1.98869Z" fill="#D9D9D9"/>
</svg>
