<svg class='planet' height="100%" viewBox="0 0 168 125" fill="none" xmlns="http://www.w3.org/2000/svg">
    <circle cx="83.5975" cy="62.4842" r="50" fill="#D9D9D9"/>
    <path fill-rule="evenodd" clip-rule="evenodd" d="M165.635 5.05875C175.139 18.6309 146.168 55.3132 100.927 86.991C55.6868 118.669 11.3081 133.346 1.80477 119.774C-5.11128 109.897 8.34935 87.7801 33.6284 64.26C33.8018 69.2256 34.6992 74.0071 36.2183 78.5022C28.9451 87.9754 26.0024 95.9646 29.069 100.344C35.4046 109.392 64.9903 99.6072 95.1507 78.4887C125.311 57.3702 144.625 32.9153 138.289 23.8673C135.166 19.4064 126.391 19.5232 114.682 23.3189C110.958 20.3592 106.802 17.9194 102.325 16.1094C133.189 0.29485 158.7 -4.84625 165.635 5.05875Z" fill="#B7B1B1"/>
</svg>
