<svg class="sun" height="100%" viewBox="0 0 152 171" fill="none" xmlns="http://www.w3.org/2000/svg">
    <path class='fill-1' fill-rule="evenodd" clip-rule="evenodd" d="M76 0C74.8954 0 74 0.895416 74 2V30.0357C74.6637 30.012 75.3305 30 76 30C76.6695 30 77.3363 30.012 78 30.0357V2C78 0.895416 77.1046 0 76 0Z" fill="#FFFFFF"/>
    <path class='fill-1' fill-rule="evenodd" clip-rule="evenodd" d="M2.37054 42.51C1.81826 43.4666 2.14601 44.6898 3.1026 45.2421L27.3822 59.2599C27.6935 58.6732 28.0165 58.0898 28.3513 57.51C28.6861 56.9302 29.0298 56.3588 29.3822 55.7958L5.1026 41.778C4.14601 41.2257 2.92283 41.5534 2.37054 42.51Z" fill="#FFFFFF"/>
    <path class='fill-1' fill-rule="evenodd" clip-rule="evenodd" d="M2.36961 127.528C2.9219 128.485 4.14508 128.813 5.10166 128.26L29.3813 114.243C29.0289 113.68 28.6851 113.108 28.3504 112.528C28.0156 111.949 27.6926 111.365 27.3813 110.779L3.10166 124.796C2.14508 125.349 1.81733 126.572 2.36961 127.528Z" fill="#FFFFFF"/>
    <path class='fill-1' fill-rule="evenodd" clip-rule="evenodd" d="M76 170.04C77.1046 170.04 78 169.145 78 168.04V140.004C77.3363 140.028 76.6695 140.04 76 140.04C75.3305 140.04 74.6637 140.028 74 140.004V168.04C74 169.145 74.8954 170.04 76 170.04Z" fill="#FFFFFF"/>
    <path class='fill-1' fill-rule="evenodd" clip-rule="evenodd" d="M149.629 127.53C150.182 126.573 149.854 125.35 148.897 124.798L124.618 110.78C124.306 111.367 123.983 111.95 123.649 112.53C123.314 113.11 122.97 113.681 122.618 114.244L146.897 128.262C147.854 128.814 149.077 128.487 149.629 127.53Z" fill="#FFFFFF"/>
    <path class='fill-1' fill-rule="evenodd" clip-rule="evenodd" d="M149.629 42.5085C149.076 41.5519 147.853 41.2241 146.897 41.7764L122.617 55.7943C122.969 56.3572 123.313 56.9286 123.648 57.5085C123.983 58.0883 124.306 58.6717 124.617 59.2584L148.897 45.2405C149.853 44.6882 150.181 43.4651 149.629 42.5085Z" fill="#FFFFFF"/>
    <circle class='fill-1' cx="76" cy="85" r="50" fill="#FFFFFF"/>
    <path class='fill-1' fill-rule="evenodd" clip-rule="evenodd" d="M38.4911 20.0505C37.5345 20.6028 37.2067 21.8259 37.759 22.7825L46.7769 38.4019C47.3398 38.0495 47.9112 37.7057 48.4911 37.371C49.0709 37.0362 49.6543 36.7132 50.241 36.4019L41.2231 20.7825C40.6708 19.8259 39.4477 19.4982 38.4911 20.0505Z" fill="#FFFFFF"/>
    <path class='fill-1' fill-rule="evenodd" clip-rule="evenodd" d="M0.980286 85.0189C0.980286 86.1235 1.87572 87.0189 2.98029 87.0189H21.016C20.9923 86.3552 20.9803 85.6884 20.9803 85.0189C20.9803 84.3494 20.9923 83.6827 21.016 83.0189H2.98029C1.87572 83.0189 0.980286 83.9144 0.980286 85.0189Z" fill="#FFFFFF"/>
    <path class='fill-1' fill-rule="evenodd" clip-rule="evenodd" d="M38.4883 149.987C39.4449 150.539 40.668 150.211 41.2203 149.255L50.2382 133.635C49.6515 133.324 49.0681 133.001 48.4883 132.666C47.9084 132.332 47.337 131.988 46.7741 131.635L37.7562 147.255C37.2039 148.211 37.5317 149.435 38.4883 149.987Z" fill="#FFFFFF"/>
    <path class='fill-1' fill-rule="evenodd" clip-rule="evenodd" d="M113.509 149.985C114.466 149.433 114.793 148.21 114.241 147.253L105.223 131.634C104.66 131.986 104.089 132.33 103.509 132.665C102.929 132.999 102.346 133.322 101.759 133.634L110.777 149.253C111.329 150.21 112.552 150.538 113.509 149.985Z" fill="#FFFFFF"/>
    <path class='fill-1' fill-rule="evenodd" clip-rule="evenodd" d="M151.016 85.019C151.016 83.9144 150.121 83.019 149.016 83.019L130.98 83.019C131.004 83.6827 131.016 84.3495 131.016 85.019C131.016 85.6885 131.004 86.3552 130.98 87.019L149.016 87.019C150.121 87.019 151.016 86.1236 151.016 85.019Z" fill="#FFFFFF"/>
    <path class='fill-1' fill-rule="evenodd" clip-rule="evenodd" d="M113.506 20.0521C112.55 19.4998 111.326 19.8276 110.774 20.7842L101.756 36.4035C102.343 36.7149 102.926 37.0379 103.506 37.3726C104.086 37.7074 104.657 38.0511 105.22 38.4035L114.238 22.7842C114.791 21.8276 114.463 20.6044 113.506 20.0521Z" fill="#FFFFFF"/>
</svg>
